<?xml version="1.0" standalone="no"?><!DOCTYPE svg PUBLIC "-//W3C//DTD SVG 1.1//EN" "http://www.w3.org/Graphics/SVG/1.1/DTD/svg11.dtd"><svg class="icon" width="200px" height="200.00px" viewBox="0 0 1024 1024" version="1.1" xmlns="http://www.w3.org/2000/svg"><path d="M512 1024C229.12 1024 0 794.88 0 512 0 229.12 229.12 0 512 0 794.88 0 1024 229.12 1024 512 1024 794.88 794.88 1024 512 1024ZM512 51.2C257.536 51.2 51.2 257.536 51.2 512 51.2 766.464 257.536 972.8 512 972.8 766.464 972.8 972.8 766.464 972.8 512 972.8 257.536 766.464 51.2 512 51.2ZM537.6 768C537.6 768 486.4 768 486.4 768 486.4 768 486.4 537.6 486.4 537.6 486.4 537.6 256 537.6 256 537.6 256 537.6 256 486.4 256 486.4 256 486.4 486.4 486.4 486.4 486.4 486.4 486.4 486.4 256 486.4 256 486.4 256 537.6 256 537.6 256 537.6 256 537.6 486.4 537.6 486.4 537.6 486.4 768 486.4 768 486.4 768 486.4 768 537.6 768 537.6 768 537.6 537.6 537.6 537.6 537.6 537.6 537.6 537.6 768 537.6 768Z" fill="#6f7375" /></svg>