<?xml version="1.0" standalone="no"?><!DOCTYPE svg PUBLIC "-//W3C//DTD SVG 1.1//EN" "http://www.w3.org/Graphics/SVG/1.1/DTD/svg11.dtd"><svg class="icon" width="200px" height="200.00px" viewBox="0 0 1024 1024" version="1.1" xmlns="http://www.w3.org/2000/svg"><path d="M716.8 369.664h163.84v40.96H716.8zM676.864 492.544H880.64v40.96H676.864zM716.8 615.424h163.84v40.96H716.8z" fill="#46c01b" /><path d="M553.984 602.112c-8.192-4.096-13.312-12.288-13.312-22.528v-10.24c0-7.168 3.072-14.336 9.216-19.456 45.056-34.816 73.728-94.208 73.728-161.792 0-106.496-72.704-192.512-162.816-192.512S297.984 282.624 297.984 389.12c0 66.56 28.672 124.928 71.68 159.744 6.144 4.096 9.216 11.264 9.216 19.456v13.312c0 9.216-5.12 18.432-13.312 22.528C268.288 652.288 143.36 721.92 143.36 775.168v52.224h634.88v-52.224c0-53.248-125.952-123.904-224.256-173.056z" fill="#46c01b" /></svg>