<?xml version="1.0" standalone="no"?><!DOCTYPE svg PUBLIC "-//W3C//DTD SVG 1.1//EN" "http://www.w3.org/Graphics/SVG/1.1/DTD/svg11.dtd"><svg class="icon" width="200px" height="200.00px" viewBox="0 0 1024 1024" version="1.1" xmlns="http://www.w3.org/2000/svg"><path d="M512.054187 0C229.224508 0 0 229.246183 0 512c0 282.808004 229.275083 512 512.054187 512 282.72853 0 511.949426-229.191996 511.949425-512C1024 229.246183 794.779104 0 512.054187 0z m184.679366 230.066209c50.79107 0 92.056106 41.268648 92.056106 92.117518s-41.268648 91.965795-92.056106 91.965795c-50.841645 0-92.056106-41.116925-92.056105-91.965795-0.003612-50.84887 41.210849-92.117518 92.056105-92.117518z m-369.41292 0c50.79107 0 92.005532 41.268648 92.005532 92.117518s-41.214461 91.965795-92.005532 91.965795c-50.841645 0-92.056106-41.116925-92.056106-91.965795 0-50.84887 41.218074-92.117518 92.056106-92.117518z m184.733554 636.376711c-184.885276 0-336.485423-141.579206-352.871504-322.234301H864.82093c-16.331894 180.655096-167.932041 322.234301-352.817318 322.234301h0.050575z" fill="#ffd100" /></svg>