<?xml version="1.0" standalone="no"?><!DOCTYPE svg PUBLIC "-//W3C//DTD SVG 1.1//EN" "http://www.w3.org/Graphics/SVG/1.1/DTD/svg11.dtd"><svg class="icon" width="200px" height="200.00px" viewBox="0 0 1024 1024" version="1.1" xmlns="http://www.w3.org/2000/svg"><path d="M829.44 775.168c0-53.248-126.976-123.904-224.256-173.056-8.192-4.096-13.312-12.288-13.312-22.528v-10.24c0-7.168 3.072-14.336 9.216-19.456 45.056-34.816 73.728-94.208 73.728-161.792 0-106.496-72.704-192.512-162.816-192.512S349.184 282.624 349.184 389.12c0 66.56 28.672 124.928 71.68 159.744 6.144 4.096 9.216 11.264 9.216 19.456v13.312c0 9.216-5.12 18.432-13.312 22.528C318.464 652.288 194.56 721.92 194.56 775.168v52.224h634.88v-52.224z" fill="#46c01b" /></svg>