<?xml version="1.0" standalone="no"?><!DOCTYPE svg PUBLIC "-//W3C//DTD SVG 1.1//EN" "http://www.w3.org/Graphics/SVG/1.1/DTD/svg11.dtd"><svg class="icon" width="200px" height="200.00px" viewBox="0 0 1024 1024" version="1.1" xmlns="http://www.w3.org/2000/svg"><path d="M543.73426 895.620098l63.96687 0 0 63.965847-63.96687 0L543.73426 895.620098 543.73426 895.620098zM415.802566 415.861406 415.802566 64.037479 63.977615 64.037479l0 351.823927 63.96687 0 0 63.96687 63.964824 0 0-63.96687L415.802566 415.861406 415.802566 415.861406zM127.944486 351.890442 127.944486 128.004349l223.884047 0 0 223.886093L127.944486 351.890442 127.944486 351.890442zM191.909309 191.970196l95.953376 0 0 95.953376-95.953376 0L191.909309 191.970196 191.909309 191.970196zM607.700107 64.037479l0 351.823927 351.824951 0L959.525058 64.037479 607.700107 64.037479 607.700107 64.037479zM895.559211 351.890442 671.668001 351.890442 671.668001 128.004349l223.89121 0L895.559211 351.890442 895.559211 351.890442zM735.641011 191.970196l95.945189 0 0 95.953376-95.945189 0L735.641011 191.970196 735.641011 191.970196zM191.909309 735.701898l95.953376 0 0 95.944166-95.953376 0L191.909309 735.701898 191.909309 735.701898zM63.977615 479.8293l63.96687 0 0 63.96687-63.96687 0L63.977615 479.8293 63.977615 479.8293zM191.909309 479.8293l63.97301 0 0 63.96687-63.97301 0L191.909309 479.8293 191.909309 479.8293zM255.88232 607.760994 63.977615 607.760994l0 351.824951 351.824951 0L415.802566 607.760994 319.848167 607.760994l0-63.965847-63.965847 0L255.88232 607.760994 255.88232 607.760994zM351.828532 671.725818l0 223.89428L127.944486 895.620098 127.944486 671.725818 351.828532 671.725818 351.828532 671.725818zM479.76739 96.023984l63.965847 0 0 95.946212-63.965847 0L479.76739 96.023984 479.76739 96.023984zM479.76739 255.943207l63.965847 0 0 63.96687-63.965847 0L479.76739 255.943207 479.76739 255.943207zM671.668001 479.8293l-63.967894 0-63.96687 0 0-95.952352-63.965847 0 0 95.952352L383.293151 479.8293l0 63.96687 96.474238 0 63.965847 0 63.96687 0 0 63.965847 63.967894 0 0-63.965847L671.668001 479.8293zM671.668001 607.760994l63.97301 0 0 63.964824-63.97301 0L671.668001 607.760994 671.668001 607.760994zM479.76739 607.760994l63.965847 0 0 95.954399-63.965847 0L479.76739 607.760994 479.76739 607.760994zM479.76739 767.682263l63.965847 0 0 127.937834-63.965847 0L479.76739 767.682263 479.76739 767.682263zM607.700107 703.715393l63.967894 0 0 191.904705-63.967894 0L607.700107 703.715393 607.700107 703.715393zM799.605835 607.760994l159.919223 0 0 63.964824L799.605835 671.725818 799.605835 607.760994 799.605835 607.760994zM895.559211 479.8293l63.965847 0 0 63.96687-63.965847 0L895.559211 479.8293 895.559211 479.8293zM735.641011 479.8293l96.210225 0 0 63.96687-96.210225 0L735.641011 479.8293 735.641011 479.8293zM735.641011 703.715393l63.964824 0 0 63.96687-63.964824 0L735.641011 703.715393 735.641011 703.715393zM895.559211 767.682263l-64.732303 0 0 63.963801 96.711646 0 0-63.963801 31.986505 0 0-63.96687-63.965847 0L895.559211 767.682263zM735.641011 831.645041l63.964824 0 0 63.975057-63.964824 0L735.641011 831.645041 735.641011 831.645041zM799.605835 895.620098l159.919223 0 0 63.965847L799.605835 959.585945 799.605835 895.620098 799.605835 895.620098zM799.605835 895.620098" fill="#bfbfbf" /></svg>