<?xml version="1.0" standalone="no"?><!DOCTYPE svg PUBLIC "-//W3C//DTD SVG 1.1//EN" "http://www.w3.org/Graphics/SVG/1.1/DTD/svg11.dtd"><svg class="icon" width="200px" height="200.00px" viewBox="0 0 1024 1024" version="1.1" xmlns="http://www.w3.org/2000/svg"><path d="M1008.8 463.8l-0.6 0c-2-19.6-17.6-35.2-37.2-37.2l-8.6 0-14.4 0 0-0.2c-24.4 0-45.8-14.2-56-34.8-2.4-5-4.4-10.4-5.4-16.2-4.6-12.8-9.8-25.4-15.6-37.4 0 0 0 0 0 0-3-4.4-5.2-9-7-14 0 0 0 0 0 0-2.4-6.6-3.6-13.6-3.6-20.8 0-17.2 7-32.8 18.2-44.2l0 0 0 0 12.8-12.8c0.2-0.2 0.4-0.2 0.6-0.4 0.2-0.2 0.2-0.4 0.4-0.6 14.8-15.2 15.6-39 2.4-55.2l0.2-0.2c-9.8-11.6-20-22.8-30.6-33.6-11-11-22.4-21.4-34.4-31.4l-0.2 0.2c-14.6-12-35.6-12.4-50.8-1.4l-9.2 9.2-8.6 8.4-0.4-0.4c-18.2 18.2-44.8 22.8-67.4 13.8-3-1.2-6-2.6-8.8-4.4-14.4-7-29.2-13-44.4-18.2-2.8-0.6-5.4-1.6-8-2.6 0 0 0 0 0 0C625 126.6 618 122 612 116c-10.2-10.2-16-23-17.8-36.4-0.6-5.2-0.6-10.4 0-15.6l0-10.8c0-20.4-14.8-37.6-34.2-41-2.4-0.2-4.8-0.4-7.2-0.6l0 0C538.8 10.6 525 10 511 10c-14 0-27.8 0.6-41.6 1.8l0 0c-2.4 0.2-4.8 0.4-7.4 0.6-19.4 3.4-34.2 20.4-34.2 41l0 18.6c0 26.8-16.8 49.6-40.6 58.6-1.4 0.6-3 1.2-4.6 1.6-16.6 5.6-32.8 12.4-48.4 20 0 0 0 0-0.2 0-1.2 0.6-2.4 1.2-3.8 1.8-8 3.6-16.6 5.6-26 5.6-17.2 0-32.8-7-44-18.2l-0.2 0-13.2-13.2c-14.4-14.4-36.8-16-53-4.8-1.8 1.6-3.8 3-5.6 4.6 0 0-0.2 0.2-0.2 0.2-10.6 9-20.8 18.4-30.6 28.2-9.8 9.8-19.2 20-28.2 30.6 0 0 0 0 0 0-1.6 1.8-3.2 3.8-4.8 5.6-11.4 16.2-9.8 38.6 4.8 53.2l13.2 13.2c18.8 19 23.2 47 12.8 70-0.6 1.4-1.4 2.8-2.2 4.2-7.6 15.4-14.4 31.6-20 48.2-0.4 1.8-1.2 3.4-1.8 5.2 0 0 0 0 0 0-3 7.8-7.8 15.4-14.2 21.6-12.2 12.2-28.2 18.2-44.2 18.2l0 0.2-18.6 0c-20.4 0-37.6 14.8-41 34.2-0.2 2.4-0.4 4.8-0.6 7.4l0 0c-1 13.4-1.6 28-1.6 41.6l0 0c0 0.2 0 0.2 0 0.4 0 0.2 0 0.2 0 0.4l0 0c0 13.8 0.6 27.4 1.6 41l0 0c0.2 2.4 0.4 4.8 0.6 7.2 3.4 19.4 20.4 34.2 40.8 34.2 0 0 0 0 0 0l18.6 0 0 0c26.6 0 49.2 16.6 58.2 40 0 0 0 0 0 0 0.6 1.6 1.2 3.2 1.6 4.6 0.2 0 0.2 0.2 0.2 0.2 5.6 16.6 12.4 32.8 20 48.4 0.2 0 0.2 0.2 0.2 0.2 0.6 1.2 1.2 2.4 1.8 3.8 3.6 8 5.6 16.8 5.6 26 0 17.2-7 32.8-18.2 44.2l0 0-12.6 12.6c-0.2 0.2-0.4 0.2-0.4 0.4-0.2 0.2-0.4 0.4-0.4 0.6-13.8 14.2-15.4 36.2-4.6 52.2 1.8 2.2 3.6 4.4 5.4 6.6 8.8 10.6 18.2 20.6 28 30.4l0 0c9.8 9.8 19.8 19.2 30.4 28 2.2 1.8 4.2 3.6 6.4 5.4 14.4 9.8 33.6 9.4 47.8-1l9.2-9.2 8.6-8.6 0.4 0.4c19-18.8 47-23.2 70-12.6 1.2 0.4 2.4 1 3.4 1.6 0 0 0.2 0 0.2 0.2 15.6 7.8 32 14.6 48.8 20.2 1.4 0.4 2.8 1 4.2 1.4 8.2 3 15.8 7.8 22.4 14.4 12.2 12.2 18.2 28.2 18.2 44.2l0.2 0 0 18.2c0 21.4 16.4 39.2 37.4 41.4l0 0.2c15.2 1.4 30.4 2.2 45.8 2.2 15.4 0 30.8-0.6 45.8-2.2l0-0.2c21-2.2 37.4-20 37.4-41.4l0-18.6c0-25 14.8-46.6 36-56.6 4.4-2 8.8-3.6 13.6-4.6 13.6-4.8 27-10.4 40-16.6 3.8-2.4 7.8-4.4 12-6 6.8-2.6 14.2-4 21.8-4 15.8 0 30.2 6 41.4 15.8 2 1.6 3.6 3.4 5.4 5.4l10.6 10.6 0 0c14.6 14.6 37.6 16 53.8 4.4 0 0 0.2 0 0.2-0.2 1.4-1.2 2.6-2.2 4-3.4 11-9.2 21.4-18.8 31.4-29 10-10 19.8-20.6 29-31.6 1.2-1.4 2.4-2.8 3.6-4.4 11.4-15.6 10.4-37.4-2.8-52.2l0 0-3-3 0 0-11.6-11.6 0 0c-18.6-18.6-23-46-13.2-68.8 1-2.2 2-4.2 3.2-6.2 7.4-15 13.8-30.6 19.4-46.6 0.6-2.2 1.2-4.2 2.2-6.2 3-7.8 7.8-15 14-21.4 12.2-12.2 28.2-18.2 44.2-18.2l0 0 18 0 0-0.2c22.2 0 40.4-17.4 41.6-39.4l0.6 0c1.2-14.4 1.8-29 1.8-43.6C1011 494.4 1010.2 479 1008.8 463.8zM766.6 510 766.6 510c0 29.2-4.8 57.2-13.8 83.2-3.4 10-7.4 19.6-12 29-12.4 25.6-29.2 48.8-49 68.8-19.8 20-43 36.6-68.6 49.2-9.4 4.6-19.2 8.8-29.2 12.2-26 9-54.2 14-83.2 14-0.2 0-0.6 0-0.8 0-28.8 0-56.6-4.8-82.4-13.6-10.4-3.4-20.4-7.8-30.2-12.4-25.4-12.4-48.4-29-68.2-48.8-20-19.8-36.6-43-49.2-68.4-4.8-9.6-9-19.6-12.4-30-9-26-13.8-53.6-13.8-82.6 0-28.8 5-58 13.8-83.8 3.6-10.2 7.8-20.2 12.4-30 12.6-25.6 29.2-48.6 49.2-68.4 20-20 43.2-36.6 68.8-49 9.6-4.6 19.4-8.8 29.8-12.2 26-8.8 53.6-13.6 82.4-13.6 0.2 0 0.6 0 0.8 0 29.2 0 57.2 5 83.2 14 10 3.4 19.8 7.6 29.2 12.2 25.6 12.6 48.6 29.2 68.6 49.2 19.8 20 36.2 43 48.8 68.2 4.6 9.4 8.8 19.4 12.2 29.4 9 26 13.8 54 13.8 83L766.8 510z" fill="#15abff" /></svg>