<?xml version="1.0" standalone="no"?><!DOCTYPE svg PUBLIC "-//W3C//DTD SVG 1.1//EN" "http://www.w3.org/Graphics/SVG/1.1/DTD/svg11.dtd"><svg class="icon" width="200px" height="200.00px" viewBox="0 0 1024 1024" version="1.1" xmlns="http://www.w3.org/2000/svg"><path d="M157.681455 605.419636c-27.970909 0-50.725818 19.069091-50.725819 42.510546v113.460363c0 23.438545 22.754909 42.510545 50.725819 42.510546 27.970909 0 50.728727-19.069091 50.728727-42.510546v-113.460363c0-23.441455-22.754909-42.510545-50.728727-42.510546zM689.332364 316.721455c-27.970909 0-50.728727 19.066182-50.728728 42.507636v402.161454c0 23.438545 22.754909 42.510545 50.728728 42.510546 27.970909 0 50.725818-19.069091 50.725818-42.510546V359.229091c0.002909-23.441455-22.754909-42.507636-50.725818-42.507636zM512.119273 412.957091c-27.970909 0-50.728727 19.069091-50.728728 42.510545v305.922909c0 23.438545 22.754909 42.510545 50.728728 42.510546 27.970909 0 50.725818-19.069091 50.725818-42.510546V455.467636c-0.002909-23.438545-22.754909-42.510545-50.725818-42.510545zM334.900364 509.184c-27.970909 0-50.728727 19.069091-50.728728 42.510545v209.696c0 23.438545 22.754909 42.510545 50.728728 42.510546s50.728727-19.069091 50.728727-42.510546v-209.696c0-23.441455-22.754909-42.510545-50.728727-42.510545z" fill="#ffffff" /></svg>