<?xml version="1.0" standalone="no"?><!DOCTYPE svg PUBLIC "-//W3C//DTD SVG 1.1//EN" "http://www.w3.org/Graphics/SVG/1.1/DTD/svg11.dtd"><svg class="icon" width="200px" height="200.00px" viewBox="0 0 1024 1024" version="1.1" xmlns="http://www.w3.org/2000/svg"><path d="M959.418123 288.290939c0-74.131371-60.09468-134.225027-134.225027-134.225027L198.806905 154.065911c-74.131371 0-134.225027 60.09468-134.225027 134.225027L64.581877 735.709061c0 74.131371 60.09468 134.225027 134.225027 134.225027l626.385167 0c74.131371 0 134.225027-60.09468 134.225027-134.225027l0-89.484034L735.709061 646.225027c-74.131371 0-134.225027-60.09468-134.225027-134.225027s60.09468-134.225027 134.225027-134.225027l223.709061 0L959.418123 288.290939z" fill="#10aeff" /><path d="M735.709061 512.00307m-67.112514 0a65.584 65.584 0 1 0 134.225027 0 65.584 65.584 0 1 0-134.225027 0Z" fill="#10aeff" /></svg>